<?xml version="1.0" encoding="UTF-8"?><svg id="uuid-c07f3290-c670-4f5f-8acd-68ffe4ed2617" xmlns="http://www.w3.org/2000/svg" viewBox="0 0 390.72 482.14"><defs><style>.uuid-135e99b6-987b-4eba-9413-1dc7a86ff132{fill:none;stroke:#010101;stroke-linecap:round;stroke-linejoin:round;stroke-width:25px;}</style></defs><path class="uuid-135e99b6-987b-4eba-9413-1dc7a86ff132" d="M286.79,154.21c-.25-27.67-22.62-50.04-50.29-50.29-18.29,0-32,6.86-41.14,20.57-9.14-13.71-22.86-20.57-41.14-20.57-27.67.25-50.04,22.62-50.29,50.29,0,13.71,6.86,27.43,16,36.57,24.9,24.64,50.04,49.02,75.43,73.14,25.28-23.48,50.42-47.1,75.43-70.86,10.25-10.33,16-24.3,16-38.86"/><path class="uuid-135e99b6-987b-4eba-9413-1dc7a86ff132" d="M12.5,412.5V69.64c0-31.56,25.58-57.14,57.14-57.14h285.72c12.62,0,22.86,10.23,22.86,22.86v411.43c0,12.62-10.23,22.86-22.86,22.86H69.64c-31.56,0-57.14-25.58-57.14-57.14s25.58-57.14,57.14-57.14h308.57"/></svg>